<svg width="160" height="99" viewBox="0 0 160 99" fill="none" xmlns="http://www.w3.org/2000/svg">
<path d="M0 59H160L140 99H20L0 59Z" fill="white"/>
<g clip-path="url(#clip0_961_2)">
<path d="M92.9931 3.62462C92.9516 1.63752 91.3625 0.0484858 89.3754 0.00699784C82.6787 -0.132396 77.0046 1.92804 72.966 5.96664C68.9275 10.0052 66.8667 15.6794 67.0064 22.3761C67.0479 24.3632 68.6369 25.9522 70.624 25.9937C70.8374 25.9981 71.0486 26.0003 71.2599 26.0003C77.6794 26.0001 83.1236 23.944 87.0335 20.034C91.072 15.9955 93.1328 10.3212 92.9931 3.62462ZM89.3596 0.768558C90.9371 0.801464 92.1987 2.06296 92.2316 3.64047C92.2674 5.35762 92.1546 7.0045 91.8972 8.57017L84.4301 1.10315C85.8067 0.876874 87.2458 0.762058 88.7406 0.762058C88.9455 0.762058 89.1526 0.764242 89.3596 0.768558ZM76.4836 24.7291L68.2712 16.5168C68.3793 15.9888 68.5044 15.4706 68.6465 14.9629L78.0373 24.3537C77.5296 24.4958 77.0116 24.621 76.4836 24.7291ZM71.2589 25.2386C71.054 25.2386 70.8469 25.2364 70.6399 25.2321C69.0624 25.1992 67.8009 23.9377 67.768 22.3602C67.7321 20.6413 67.8452 18.9929 68.1031 17.4259L75.5741 24.8968C74.1961 25.1236 72.7554 25.2386 71.2589 25.2386ZM86.4948 19.4954C84.388 21.6023 81.8134 23.1497 78.865 24.1041L68.8962 14.1354C69.8506 11.1869 71.3979 8.61196 73.5046 6.50522C75.6125 4.39741 78.1885 2.84956 81.1386 1.89528L82.3005 3.0572C82.3748 3.13154 82.4723 3.16877 82.5698 3.16877C82.6672 3.16877 82.7647 3.13159 82.8391 3.0572C82.9878 2.90846 82.9878 2.6673 82.8391 2.51862L81.9664 1.64585C82.4742 1.50381 82.9924 1.37874 83.5205 1.27068L91.7293 9.4795C91.6212 10.0076 91.4963 10.5258 91.3542 11.0336L83.9974 3.67688C83.8487 3.52814 83.6075 3.52814 83.4589 3.67688C83.3101 3.82562 83.3101 4.06677 83.4589 4.21546L91.1046 11.8612C90.1503 14.8114 88.6026 17.3878 86.4948 19.4954Z" fill="url(#paint0_linear_961_2)"/>
<path d="M84.2402 8.22101L83.0062 9.45493L82.1481 8.59683C81.9994 8.4481 81.7583 8.4481 81.6096 8.59683C81.4608 8.74557 81.4608 8.98673 81.6096 9.13542L82.4677 9.99351L81.5031 10.9581L80.645 10.1C80.4962 9.95126 80.2551 9.95126 80.1064 10.1C79.9577 10.2487 79.9577 10.4899 80.1064 10.6386L80.9645 11.4967L79.9999 12.4613L79.1418 11.6032C78.9931 11.4544 78.7519 11.4544 78.6032 11.6032C78.4545 11.7519 78.4545 11.9931 78.6032 12.1417L79.4613 12.9998L78.4966 13.9645L77.6386 13.1064C77.4898 12.9577 77.2487 12.9577 77.1 13.1064C76.9512 13.2552 76.9512 13.4963 77.1 13.645L77.9581 14.5031L76.9935 15.4677L76.1353 14.6096C75.9866 14.4609 75.7454 14.4609 75.5968 14.6096C75.448 14.7583 75.448 14.9995 75.5968 15.1482L76.4549 16.0063L75.2209 17.2402C75.0722 17.3889 75.0722 17.6301 75.2209 17.7788C75.2953 17.8531 75.3928 17.8903 75.4902 17.8903C75.5877 17.8903 75.6852 17.8532 75.7595 17.7788L76.9934 16.5449L77.8515 17.4029C77.9259 17.4773 78.0234 17.5145 78.1208 17.5145C78.2183 17.5145 78.3158 17.4773 78.3901 17.4029C78.5388 17.2542 78.5388 17.013 78.3901 16.8644L77.532 16.0063L78.4966 15.0417L79.3547 15.8998C79.4291 15.9742 79.5266 16.0114 79.624 16.0114C79.7215 16.0114 79.819 15.9742 79.8933 15.8998C80.0421 15.7511 80.0421 15.5099 79.8933 15.3613L79.0352 14.5032L79.9998 13.5386L80.8579 14.3967C80.9323 14.471 81.0297 14.5082 81.1272 14.5082C81.2246 14.5082 81.3221 14.4711 81.3965 14.3967C81.5452 14.2479 81.5452 14.0068 81.3965 13.8581L80.5384 13L81.503 12.0354L82.3611 12.8935C82.4354 12.9678 82.5329 13.0051 82.6304 13.0051C82.7278 13.0051 82.8253 12.9679 82.8997 12.8935C83.0484 12.7448 83.0484 12.5036 82.8997 12.3549L82.0417 11.4967L83.0062 10.5321L83.8643 11.3902C83.9387 11.4646 84.0362 11.5018 84.1336 11.5018C84.2311 11.5018 84.3286 11.4646 84.4029 11.3902C84.5517 11.2415 84.5517 11.0003 84.4029 10.8517L83.5448 9.99356L84.7787 8.75964C84.9275 8.6109 84.9275 8.36974 84.7787 8.22106C84.6301 8.07232 84.3889 8.07232 84.2402 8.22101Z" fill="url(#paint1_linear_961_2)"/>
</g>
<path d="M46.9924 71.8824H43.9113V74.402H47.4904V75.1686H42.9738V68.0592H47.4416V68.8307H43.9113V71.1158H46.9924V71.8824ZM50.7521 71.9996C49.9481 71.7685 49.3622 71.4853 48.9943 71.15C48.6298 70.8115 48.4475 70.3948 48.4475 69.9C48.4475 69.3401 48.6704 68.8779 49.1164 68.5133C49.5656 68.1455 50.1483 67.9615 50.8645 67.9615C51.3527 67.9615 51.7873 68.0559 52.1682 68.2448C52.5523 68.4336 52.8485 68.694 53.0568 69.026C53.2684 69.358 53.3742 69.721 53.3742 70.1149H52.4318C52.4318 69.6852 52.2951 69.3483 52.0217 69.1041C51.7482 68.8567 51.3625 68.733 50.8645 68.733C50.4022 68.733 50.0409 68.8356 49.7805 69.0406C49.5233 69.2425 49.3947 69.524 49.3947 69.8854C49.3947 70.1751 49.5168 70.4209 49.7609 70.6227C50.0083 70.8212 50.4266 71.0035 51.0158 71.1696C51.6083 71.3356 52.0705 71.5195 52.4025 71.7213C52.7378 71.9199 52.9852 72.1526 53.1447 72.4196C53.3075 72.6865 53.3889 73.0006 53.3889 73.3619C53.3889 73.9381 53.1643 74.4003 52.715 74.7487C52.2658 75.0937 51.6652 75.2662 50.9133 75.2662C50.425 75.2662 49.9693 75.1735 49.5461 74.9879C49.1229 74.7991 48.7958 74.542 48.5646 74.2164C48.3368 73.8909 48.2229 73.5214 48.2229 73.108H49.1652C49.1652 73.5377 49.3231 73.8779 49.6389 74.1285C49.9579 74.3759 50.3827 74.4996 50.9133 74.4996C51.4081 74.4996 51.7873 74.3987 52.051 74.1969C52.3146 73.9951 52.4465 73.72 52.4465 73.3717C52.4465 73.0234 52.3244 72.7548 52.0803 72.566C51.8361 72.374 51.3934 72.1852 50.7521 71.9996ZM55.5324 72.3854V75.1686H54.5949V68.0592H57.217C57.995 68.0592 58.6037 68.2578 59.0432 68.6549C59.4859 69.052 59.7072 69.5778 59.7072 70.2321C59.7072 70.9222 59.4908 71.4544 59.0578 71.8287C58.6281 72.1998 58.0113 72.3854 57.2072 72.3854H55.5324ZM55.5324 71.6188H57.217C57.7183 71.6188 58.1024 71.5016 58.3693 71.2672C58.6363 71.0296 58.7697 70.6878 58.7697 70.2418C58.7697 69.8186 58.6363 69.4801 58.3693 69.2262C58.1024 68.9723 57.7362 68.8405 57.2707 68.8307H55.5324V71.6188ZM66.3723 71.8434C66.3723 72.54 66.2551 73.1487 66.0207 73.6696C65.7863 74.1871 65.4543 74.5826 65.0246 74.8561C64.5949 75.1295 64.0936 75.2662 63.5207 75.2662C62.9608 75.2662 62.4644 75.1295 62.0314 74.8561C61.5985 74.5794 61.2616 74.1871 61.0207 73.6793C60.7831 73.1683 60.661 72.5774 60.6545 71.9069V71.3942C60.6545 70.7106 60.7733 70.1067 61.0109 69.5826C61.2486 69.0586 61.5839 68.6582 62.0168 68.3815C62.453 68.1015 62.951 67.9615 63.5109 67.9615C64.0806 67.9615 64.5819 68.0999 65.0148 68.3766C65.451 68.65 65.7863 69.0488 66.0207 69.5729C66.2551 70.0937 66.3723 70.7008 66.3723 71.3942V71.8434ZM65.4396 71.3844C65.4396 70.5413 65.2704 69.8951 64.9318 69.4459C64.5933 68.9934 64.1197 68.7672 63.5109 68.7672C62.9185 68.7672 62.4514 68.9934 62.1096 69.4459C61.771 69.8951 61.5969 70.5201 61.5871 71.3209V71.8434C61.5871 72.6604 61.758 73.3033 62.0998 73.7721C62.4449 74.2376 62.9185 74.4703 63.5207 74.4703C64.1262 74.4703 64.5949 74.2506 64.927 73.8112C65.259 73.3684 65.4299 72.7353 65.4396 71.9117V71.3844ZM70.3859 72.2926H68.716V75.1686H67.7736V68.0592H70.1271C70.9279 68.0592 71.5432 68.2415 71.9729 68.6061C72.4058 68.9707 72.6223 69.5013 72.6223 70.1979C72.6223 70.6406 72.5018 71.0263 72.2609 71.3551C72.0233 71.6839 71.6913 71.9296 71.2648 72.0924L72.9348 75.11V75.1686H71.9289L70.3859 72.2926ZM68.716 71.526H70.1564C70.6219 71.526 70.9914 71.4056 71.2648 71.1647C71.5415 70.9238 71.6799 70.6015 71.6799 70.1979C71.6799 69.7584 71.548 69.4215 71.2844 69.1871C71.024 68.9528 70.6464 68.8339 70.1516 68.8307H68.716V71.526ZM78.4621 68.8307H76.177V75.1686H75.2443V68.8307H72.9641V68.0592H78.4621V68.8307ZM81.5334 71.9996C80.7294 71.7685 80.1434 71.4853 79.7756 71.15C79.411 70.8115 79.2287 70.3948 79.2287 69.9C79.2287 69.3401 79.4517 68.8779 79.8977 68.5133C80.3469 68.1455 80.9296 67.9615 81.6457 67.9615C82.134 67.9615 82.5686 68.0559 82.9494 68.2448C83.3335 68.4336 83.6298 68.694 83.8381 69.026C84.0497 69.358 84.1555 69.721 84.1555 70.1149H83.2131C83.2131 69.6852 83.0764 69.3483 82.8029 69.1041C82.5295 68.8567 82.1437 68.733 81.6457 68.733C81.1835 68.733 80.8221 68.8356 80.5617 69.0406C80.3046 69.2425 80.176 69.524 80.176 69.8854C80.176 70.1751 80.298 70.4209 80.5422 70.6227C80.7896 70.8212 81.2079 71.0035 81.7971 71.1696C82.3895 71.3356 82.8518 71.5195 83.1838 71.7213C83.5191 71.9199 83.7665 72.1526 83.926 72.4196C84.0887 72.6865 84.1701 73.0006 84.1701 73.3619C84.1701 73.9381 83.9455 74.4003 83.4963 74.7487C83.0471 75.0937 82.4465 75.2662 81.6945 75.2662C81.2062 75.2662 80.7505 75.1735 80.3273 74.9879C79.9042 74.7991 79.577 74.542 79.3459 74.2164C79.118 73.8909 79.0041 73.5214 79.0041 73.108H79.9465C79.9465 73.5377 80.1044 73.8779 80.4201 74.1285C80.7391 74.3759 81.1639 74.4996 81.6945 74.4996C82.1893 74.4996 82.5686 74.3987 82.8322 74.1969C83.0959 73.9951 83.2277 73.72 83.2277 73.3717C83.2277 73.0234 83.1057 72.7548 82.8615 72.566C82.6174 72.374 82.1747 72.1852 81.5334 71.9996ZM93.3205 75.1686H92.3781L88.799 69.6901V75.1686H87.8566V68.0592H88.799L92.3879 73.5621V68.0592H93.3205V75.1686ZM99.0041 71.8824H95.923V74.402H99.5021V75.1686H94.9855V68.0592H99.4533V68.8307H95.923V71.1158H99.0041V71.8824ZM102.202 72.9274L102.339 73.8649L102.539 73.0201L103.946 68.0592H104.737L106.109 73.0201L106.304 73.8795L106.455 72.9225L107.559 68.0592H108.501L106.778 75.1686H105.923L104.458 69.9879L104.346 69.4459L104.234 69.9879L102.715 75.1686H101.861L100.142 68.0592H101.079L102.202 72.9274ZM111.641 71.9996C110.837 71.7685 110.251 71.4853 109.883 71.15C109.518 70.8115 109.336 70.3948 109.336 69.9C109.336 69.3401 109.559 68.8779 110.005 68.5133C110.454 68.1455 111.037 67.9615 111.753 67.9615C112.241 67.9615 112.676 68.0559 113.057 68.2448C113.441 68.4336 113.737 68.694 113.946 69.026C114.157 69.358 114.263 69.721 114.263 70.1149H113.321C113.321 69.6852 113.184 69.3483 112.91 69.1041C112.637 68.8567 112.251 68.733 111.753 68.733C111.291 68.733 110.93 68.8356 110.669 69.0406C110.412 69.2425 110.283 69.524 110.283 69.8854C110.283 70.1751 110.405 70.4209 110.65 70.6227C110.897 70.8212 111.315 71.0035 111.904 71.1696C112.497 71.3356 112.959 71.5195 113.291 71.7213C113.627 71.9199 113.874 72.1526 114.033 72.4196C114.196 72.6865 114.278 73.0006 114.278 73.3619C114.278 73.9381 114.053 74.4003 113.604 74.7487C113.154 75.0937 112.554 75.2662 111.802 75.2662C111.314 75.2662 110.858 75.1735 110.435 74.9879C110.012 74.7991 109.684 74.542 109.453 74.2164C109.225 73.8909 109.112 73.5214 109.112 73.108H110.054C110.054 73.5377 110.212 73.8779 110.528 74.1285C110.847 74.3759 111.271 74.4996 111.802 74.4996C112.297 74.4996 112.676 74.3987 112.94 74.1969C113.203 73.9951 113.335 73.72 113.335 73.3717C113.335 73.0234 113.213 72.7548 112.969 72.566C112.725 72.374 112.282 72.1852 111.641 71.9996Z" fill="#999999"/>
<path d="M23.0346 60V38.94H30.1066C31.3719 38.94 32.4119 39.1827 33.2266 39.668C34.0413 40.136 34.6479 40.8293 35.0466 41.748C35.4453 42.6493 35.6446 43.75 35.6446 45.05C35.6446 46.6793 35.3759 47.9273 34.8386 48.794C34.3013 49.6433 33.5733 50.2327 32.6546 50.562C31.7359 50.8913 30.7046 51.056 29.5606 51.056H27.6886V60H23.0346ZM27.6886 47.806H29.2486C29.8206 47.806 30.2539 47.702 30.5486 47.494C30.8433 47.286 31.0339 46.974 31.1206 46.558C31.2246 46.142 31.2766 45.6133 31.2766 44.972C31.2766 44.4347 31.2333 43.9667 31.1466 43.568C31.0773 43.152 30.8953 42.8227 30.6006 42.58C30.3059 42.3373 29.8466 42.216 29.2226 42.216H27.6886V47.806ZM35.6554 60L39.6334 38.94H44.9374L48.8634 60H44.5734L43.8714 55.554H40.7774L40.0494 60H35.6554ZM41.1934 52.772H43.4294L42.3114 44.556L41.1934 52.772ZM50.7866 60V38.94H57.8586C59.1239 38.94 60.1639 39.1827 60.9786 39.668C61.7932 40.136 62.3999 40.8293 62.7986 41.748C63.1972 42.6493 63.3966 43.75 63.3966 45.05C63.3966 46.6793 63.1279 47.9273 62.5906 48.794C62.0532 49.6433 61.3252 50.2327 60.4066 50.562C59.4879 50.8913 58.4566 51.056 57.3126 51.056H55.4406V60H50.7866ZM55.4406 47.806H57.0006C57.5726 47.806 58.0059 47.702 58.3006 47.494C58.5952 47.286 58.7859 46.974 58.8726 46.558C58.9766 46.142 59.0286 45.6133 59.0286 44.972C59.0286 44.4347 58.9852 43.9667 58.8986 43.568C58.8292 43.152 58.6472 42.8227 58.3526 42.58C58.0579 42.3373 57.5986 42.216 56.9746 42.216H55.4406V47.806ZM65.437 60V38.94H74.901V42.112H70.091V47.338H73.757V50.562H70.091V56.854H74.953V60H65.437ZM77.0659 60V38.94H82.8639C84.2852 38.94 85.5159 39.096 86.5559 39.408C87.5959 39.72 88.4019 40.2833 88.9739 41.098C89.5632 41.8953 89.8579 43.0307 89.8579 44.504C89.8579 45.3707 89.7885 46.142 89.6499 46.818C89.5112 47.494 89.2512 48.0833 88.8699 48.586C88.5059 49.0713 87.9772 49.4787 87.2839 49.808L90.1699 60H85.3599L83.0459 50.562H81.7199V60H77.0659ZM81.7199 47.884H83.0199C83.6785 47.884 84.1899 47.7713 84.5539 47.546C84.9179 47.3033 85.1692 46.9653 85.3079 46.532C85.4639 46.0813 85.5419 45.544 85.5419 44.92C85.5419 44.0187 85.3772 43.3167 85.0479 42.814C84.7185 42.3113 84.1119 42.06 83.2279 42.06H81.7199V47.884ZM92.5777 60L92.9417 38.94H97.9337L100.248 51.186L102.744 38.94H107.554L107.918 60H104.616L104.226 45.986L101.782 60H98.8437L96.2437 45.882L95.9317 60H92.5777ZM109.948 60L113.926 38.94H119.23L123.156 60H118.866L118.164 55.554H115.07L114.342 60H109.948ZM115.486 52.772H117.722L116.604 44.556L115.486 52.772ZM130.439 60.312C128.983 60.312 127.83 60.0087 126.981 59.402C126.149 58.7953 125.551 57.946 125.187 56.854C124.84 55.7447 124.667 54.4707 124.667 53.032V45.96C124.667 44.4693 124.857 43.178 125.239 42.086C125.62 40.994 126.27 40.1533 127.189 39.564C128.125 38.9573 129.39 38.654 130.985 38.654C132.545 38.654 133.767 38.914 134.651 39.434C135.552 39.954 136.193 40.6733 136.575 41.592C136.956 42.5107 137.147 43.5853 137.147 44.816V46.168H132.597V44.452C132.597 44.0013 132.562 43.5853 132.493 43.204C132.441 42.8227 132.302 42.5193 132.077 42.294C131.869 42.0513 131.522 41.93 131.037 41.93C130.534 41.93 130.17 42.0687 129.945 42.346C129.719 42.606 129.572 42.9353 129.503 43.334C129.451 43.7327 129.425 44.1487 129.425 44.582V54.332C129.425 54.8 129.468 55.242 129.555 55.658C129.659 56.0567 129.832 56.386 130.075 56.646C130.335 56.8887 130.699 57.01 131.167 57.01C131.652 57.01 132.025 56.88 132.285 56.62C132.545 56.36 132.727 56.022 132.831 55.606C132.935 55.19 132.987 54.748 132.987 54.28V51.81H131.089V49.08H137.173V60H134.105L133.845 58.258C133.567 58.8473 133.16 59.3413 132.623 59.74C132.085 60.1213 131.357 60.312 130.439 60.312Z" fill="black"/>
<defs>
<linearGradient id="paint0_linear_961_2" x1="66.9998" y1="14.6254" x2="92.9997" y2="14.6254" gradientUnits="userSpaceOnUse">
<stop stop-color="#2130FF"/>
<stop offset="1" stop-color="#0090FF"/>
</linearGradient>
<linearGradient id="paint1_linear_961_2" x1="75.1094" y1="13.6112" x2="84.8903" y2="13.6112" gradientUnits="userSpaceOnUse">
<stop stop-color="#2130FF"/>
<stop offset="1" stop-color="#0090FF"/>
</linearGradient>
<clipPath id="clip0_961_2">
<rect width="26" height="26" fill="white" transform="translate(67)"/>
</clipPath>
</defs>
</svg>
