<svg width="177" height="40" viewBox="0 0 177 40" fill="none" xmlns="http://www.w3.org/2000/svg">
<path d="M54.1016 22.9863V30H50V10.0938H57.7656C59.2604 10.0938 60.5729 10.3672 61.7031 10.9141C62.8424 11.4609 63.7174 12.2402 64.3281 13.252C64.9388 14.2546 65.2441 15.3984 65.2441 16.6836C65.2441 18.6341 64.5742 20.1745 63.2344 21.3047C61.9036 22.4258 60.0579 22.9863 57.6973 22.9863H54.1016ZM54.1016 19.6641H57.7656C58.8503 19.6641 59.6751 19.4089 60.2402 18.8984C60.8145 18.388 61.1016 17.6589 61.1016 16.7109C61.1016 15.7357 60.8145 14.9473 60.2402 14.3457C59.666 13.7441 58.873 13.4342 57.8613 13.416H54.1016V19.6641Z" fill="#111111"/>
<path d="M76.2227 30C76.0404 29.6445 75.9082 29.2025 75.8262 28.6738C74.8691 29.7402 73.625 30.2734 72.0938 30.2734C70.6445 30.2734 69.4414 29.8542 68.4844 29.0156C67.5365 28.1771 67.0625 27.1198 67.0625 25.8438C67.0625 24.276 67.6413 23.0729 68.7988 22.2344C69.9655 21.3958 71.6471 20.972 73.8438 20.9629H75.6621V20.1152C75.6621 19.4316 75.4844 18.8848 75.1289 18.4746C74.7826 18.0645 74.2311 17.8594 73.4746 17.8594C72.8092 17.8594 72.2852 18.0189 71.9023 18.3379C71.5286 18.6569 71.3418 19.0944 71.3418 19.6504H67.3906C67.3906 18.7936 67.6549 18.0007 68.1836 17.2715C68.7122 16.5423 69.4596 15.9727 70.4258 15.5625C71.3919 15.1432 72.4766 14.9336 73.6797 14.9336C75.5026 14.9336 76.9473 15.3939 78.0137 16.3145C79.0892 17.2259 79.627 18.5111 79.627 20.1699V26.582C79.6361 27.9857 79.832 29.0475 80.2148 29.7676V30H76.2227ZM72.9551 27.252C73.5384 27.252 74.0762 27.1243 74.5684 26.8691C75.0605 26.6048 75.4251 26.2539 75.6621 25.8164V23.2734H74.1855C72.2077 23.2734 71.1549 23.957 71.0273 25.3242L71.0137 25.5566C71.0137 26.0488 71.1868 26.4544 71.5332 26.7734C71.8796 27.0924 72.3535 27.252 72.9551 27.252Z" fill="#111111"/>
<path d="M95.9785 22.7402C95.9785 25.0189 95.459 26.8464 94.4199 28.2227C93.39 29.5898 91.9954 30.2734 90.2363 30.2734C88.7415 30.2734 87.5339 29.7539 86.6133 28.7148V35.6875H82.6621V15.207H86.3262L86.4629 16.6562C87.4199 15.5078 88.6686 14.9336 90.209 14.9336C92.0319 14.9336 93.4492 15.6081 94.4609 16.957C95.4727 18.306 95.9785 20.1654 95.9785 22.5352V22.7402ZM92.0273 22.4531C92.0273 21.0768 91.7812 20.015 91.2891 19.2676C90.806 18.5202 90.0996 18.1465 89.1699 18.1465C87.9303 18.1465 87.0781 18.6204 86.6133 19.5684V25.625C87.0964 26.6003 87.9577 27.0879 89.1973 27.0879C91.084 27.0879 92.0273 25.543 92.0273 22.4531Z" fill="#111111"/>
<path d="M105.248 30.2734C103.079 30.2734 101.311 29.6081 99.9434 28.2773C98.5853 26.9466 97.9062 25.1738 97.9062 22.959V22.5762C97.9062 21.0905 98.1934 19.7643 98.7676 18.5977C99.3418 17.4219 100.153 16.5195 101.201 15.8906C102.258 15.2526 103.462 14.9336 104.811 14.9336C106.834 14.9336 108.424 15.5716 109.582 16.8477C110.749 18.1237 111.332 19.9329 111.332 22.2754V23.8887H101.912C102.04 24.8548 102.423 25.6296 103.061 26.2129C103.708 26.7962 104.523 27.0879 105.508 27.0879C107.03 27.0879 108.219 26.5365 109.076 25.4336L111.018 27.6074C110.425 28.446 109.623 29.1022 108.611 29.5762C107.6 30.041 106.479 30.2734 105.248 30.2734ZM104.797 18.1328C104.013 18.1328 103.375 18.3971 102.883 18.9258C102.4 19.4544 102.09 20.2109 101.953 21.1953H107.449V20.8809C107.431 20.0059 107.194 19.3314 106.738 18.8574C106.283 18.3743 105.635 18.1328 104.797 18.1328Z" fill="#111111"/>
<path d="M121.9 18.9121C121.363 18.8392 120.889 18.8027 120.479 18.8027C118.984 18.8027 118.004 19.3086 117.539 20.3203V30H113.588V15.207H117.32L117.43 16.9707C118.223 15.6126 119.321 14.9336 120.725 14.9336C121.162 14.9336 121.572 14.9928 121.955 15.1113L121.9 18.9121Z" fill="#111111"/>
<path d="M129.434 10.0938L134.547 24.5312L139.633 10.0938H145.02V30H140.904V24.5586L141.314 15.166L135.941 30H133.125L127.766 15.1797L128.176 24.5586V30H124.074V10.0938H129.434Z" fill="#111111"/>
<path d="M156.914 30C156.732 29.6445 156.6 29.2025 156.518 28.6738C155.561 29.7402 154.316 30.2734 152.785 30.2734C151.336 30.2734 150.133 29.8542 149.176 29.0156C148.228 28.1771 147.754 27.1198 147.754 25.8438C147.754 24.276 148.333 23.0729 149.49 22.2344C150.657 21.3958 152.339 20.972 154.535 20.9629H156.354V20.1152C156.354 19.4316 156.176 18.8848 155.82 18.4746C155.474 18.0645 154.923 17.8594 154.166 17.8594C153.501 17.8594 152.977 18.0189 152.594 18.3379C152.22 18.6569 152.033 19.0944 152.033 19.6504H148.082C148.082 18.7936 148.346 18.0007 148.875 17.2715C149.404 16.5423 150.151 15.9727 151.117 15.5625C152.083 15.1432 153.168 14.9336 154.371 14.9336C156.194 14.9336 157.639 15.3939 158.705 16.3145C159.781 17.2259 160.318 18.5111 160.318 20.1699V26.582C160.327 27.9857 160.523 29.0475 160.906 29.7676V30H156.914ZM153.646 27.252C154.23 27.252 154.768 27.1243 155.26 26.8691C155.752 26.6048 156.117 26.2539 156.354 25.8164V23.2734H154.877C152.899 23.2734 151.846 23.957 151.719 25.3242L151.705 25.5566C151.705 26.0488 151.878 26.4544 152.225 26.7734C152.571 27.0924 153.045 27.252 153.646 27.252Z" fill="#111111"/>
<path d="M162.779 22.4941C162.779 20.2246 163.317 18.3971 164.393 17.0117C165.477 15.6263 166.936 14.9336 168.768 14.9336C170.39 14.9336 171.652 15.4896 172.555 16.6016L172.719 15.207H176.301V29.5078C176.301 30.8021 176.005 31.9277 175.412 32.8848C174.829 33.8418 174.004 34.571 172.938 35.0723C171.871 35.5736 170.622 35.8242 169.191 35.8242C168.107 35.8242 167.049 35.6055 166.02 35.168C164.99 34.7396 164.21 34.1836 163.682 33.5L165.432 31.0938C166.416 32.1966 167.61 32.748 169.014 32.748C170.062 32.748 170.878 32.4655 171.461 31.9004C172.044 31.3444 172.336 30.5514 172.336 29.5215V28.7285C171.424 29.7585 170.226 30.2734 168.74 30.2734C166.963 30.2734 165.523 29.5807 164.42 28.1953C163.326 26.8008 162.779 24.9551 162.779 22.6582V22.4941ZM166.73 22.7812C166.73 24.1211 166.999 25.1738 167.537 25.9395C168.075 26.696 168.813 27.0742 169.752 27.0742C170.955 27.0742 171.816 26.623 172.336 25.7207V19.5C171.807 18.5977 170.955 18.1465 169.779 18.1465C168.831 18.1465 168.084 18.5339 167.537 19.3086C166.999 20.0833 166.73 21.2409 166.73 22.7812Z" fill="#111111"/>
<path fill-rule="evenodd" clip-rule="evenodd" d="M39.9999 1.40161V37.9355H33.2852V1.40161H39.9999Z" fill="url(#paint0_linear_854_21)"/>
<path fill-rule="evenodd" clip-rule="evenodd" d="M6.41934 6.83644H0V0H6.41934C24.9665 0 40 15.3058 40 34.189V39.9521H33.2852V34.189C33.2852 19.0815 21.2581 6.83644 6.41934 6.83644Z" fill="url(#paint1_linear_854_21)"/>
<path fill-rule="evenodd" clip-rule="evenodd" d="M3.55878 12.6731C3.60411 12.6715 3.70384 12.668 3.81398 12.668C16.7073 12.668 27.1613 23.3113 27.1613 36.4383C27.1613 36.5299 27.1581 36.6063 27.1554 36.657C27.1552 36.6624 27.1549 36.6676 27.1546 36.6728V40H0.161133V12.6748H3.50871C3.51357 12.6747 3.52599 12.6743 3.55055 12.6734C3.55305 12.6733 3.55579 12.6732 3.55878 12.6731ZM6.87592 19.7908C13.5545 21.0565 18.831 26.3862 20.1357 33.1636H6.87592V19.7908Z" fill="url(#paint2_linear_854_21)"/>
<defs>
<linearGradient id="paint0_linear_854_21" x1="33.2852" y1="21.9519" x2="39.9999" y2="21.9519" gradientUnits="userSpaceOnUse">
<stop stop-color="#2130FF"/>
<stop offset="1" stop-color="#0090FF"/>
</linearGradient>
<linearGradient id="paint1_linear_854_21" x1="0" y1="22.4731" x2="40" y2="22.4731" gradientUnits="userSpaceOnUse">
<stop stop-color="#2130FF"/>
<stop offset="1" stop-color="#0090FF"/>
</linearGradient>
<linearGradient id="paint2_linear_854_21" x1="0.161133" y1="28.0423" x2="27.1613" y2="28.0423" gradientUnits="userSpaceOnUse">
<stop stop-color="#2130FF"/>
<stop offset="1" stop-color="#0090FF"/>
</linearGradient>
</defs>
</svg>
